<?xml version="1.0" encoding="UTF-8" standalone="no"?>
<!-- Created with Inkscape (http://www.inkscape.org/) -->

<svg
   xmlns:dc="http://purl.org/dc/elements/1.1/"
   xmlns:cc="http://creativecommons.org/ns#"
   xmlns:rdf="http://www.w3.org/1999/02/22-rdf-syntax-ns#"
   xmlns:svg="http://www.w3.org/2000/svg"
   xmlns="http://www.w3.org/2000/svg"
   xmlns:sodipodi="http://sodipodi.sourceforge.net/DTD/sodipodi-0.dtd"
   xmlns:inkscape="http://www.inkscape.org/namespaces/inkscape"
   version="1.1"
   id="svg10"
   xml:space="preserve"
   width="1122.4819"
   height="793.66296"
   viewBox="0 0 1122.4819 793.66296"
   sodipodi:docname="opm.svg"
   inkscape:version="0.92.3 (2405546, 2018-03-11)"><metadata
     id="metadata16"><rdf:RDF><cc:Work
         rdf:about=""><dc:format>image/svg+xml</dc:format><dc:type
           rdf:resource="http://purl.org/dc/dcmitype/StillImage" /><dc:title></dc:title></cc:Work></rdf:RDF></metadata><defs
     id="defs14"><clipPath
       clipPathUnits="userSpaceOnUse"
       id="clipPath26"><path
         d="M 0,0 H 841.8 V 595.2 H 0 Z"
         id="path24"
         inkscape:connector-curvature="0"
         style="clip-rule:evenodd" /></clipPath></defs><sodipodi:namedview
     pagecolor="#ffffff"
     bordercolor="#666666"
     borderopacity="1"
     objecttolerance="10"
     gridtolerance="10"
     guidetolerance="10"
     inkscape:pageopacity="0"
     inkscape:pageshadow="2"
     inkscape:window-width="1879"
     inkscape:window-height="1025"
     id="namedview12"
     showgrid="false"
     inkscape:zoom="1.0835834"
     inkscape:cx="561.24097"
     inkscape:cy="396.83148"
     inkscape:window-x="0"
     inkscape:window-y="27"
     inkscape:window-maximized="1"
     inkscape:current-layer="g18" /><g
     id="g18"
     inkscape:groupmode="layer"
     inkscape:label="opm"
     transform="matrix(1.3333333,0,0,-1.3333333,0,793.66299)"><g
       id="g20"><g
         id="g22"
         clip-path="url(#clipPath26)"><path
           d="M 0,595.2 H 841.9 V 0 H 0 Z"
           style="fill:#ffffff;fill-opacity:1;fill-rule:evenodd;stroke:none"
           id="path28"
           inkscape:connector-curvature="0" /><g
           id="g30"><path
             d="m 442.2,39.9 h -343 v 87.9 h 686 V 39.9 Z"
             style="fill:none;stroke:#000000;stroke-width:0.75;stroke-linecap:butt;stroke-linejoin:round;stroke-miterlimit:10;stroke-dasharray:none;stroke-opacity:1"
             id="path32"
             inkscape:connector-curvature="0" /></g><g
           id="g34"><path
             d="M 188.5,345.8 H 96.4 V 518.7 H 280.6 V 345.8 Z"
             style="fill:none;stroke:#000000;stroke-width:0.75;stroke-linecap:butt;stroke-linejoin:round;stroke-miterlimit:10;stroke-dasharray:none;stroke-opacity:1"
             id="path36"
             inkscape:connector-curvature="0" /></g><g
           id="g38"><path
             d="m 418.1,507.3 c 44.2,0 78,-34.4 78,-79.3 0,-45 -33.8,-79.4 -78,-79.4 -44.2,0 -77.9,34.4 -77.9,79.4 0,44.9 33.7,79.3 77.9,79.3 z"
             style="fill:none;stroke:#000000;stroke-width:0.75;stroke-linecap:butt;stroke-linejoin:round;stroke-miterlimit:10;stroke-dasharray:none;stroke-opacity:1"
             id="path40"
             inkscape:connector-curvature="0" /></g><g
           id="g42"><path
             d="M 340.2,507.3 Z"
             style="fill:none;stroke:#000000;stroke-width:0.75;stroke-linecap:butt;stroke-linejoin:round;stroke-miterlimit:10;stroke-dasharray:none;stroke-opacity:1"
             id="path44"
             inkscape:connector-curvature="0" /></g><g
           id="g46"><path
             d="M 496.1,348.6 Z"
             style="fill:none;stroke:#000000;stroke-width:0.75;stroke-linecap:butt;stroke-linejoin:round;stroke-miterlimit:10;stroke-dasharray:none;stroke-opacity:1"
             id="path48"
             inkscape:connector-curvature="0" /></g><g
           id="g50"><path
             d="M 693.1,328.7 H 612.3 V 510.2 H 773.9 V 328.7 Z"
             style="fill:none;stroke:#000000;stroke-width:0.75;stroke-linecap:butt;stroke-linejoin:round;stroke-miterlimit:10;stroke-dasharray:none;stroke-opacity:1"
             id="path52"
             inkscape:connector-curvature="0" /></g><g
           id="g54"><path
             d="M 419,189.1 H 325.5 V 294 H 512.6 V 189.1 Z"
             style="fill:none;stroke:#000000;stroke-width:0.75;stroke-linecap:butt;stroke-linejoin:round;stroke-miterlimit:10;stroke-dasharray:none;stroke-opacity:1"
             id="path56"
             inkscape:connector-curvature="0" /></g><g
           id="g58"><path
             d="m 280.6,425.1 h 35.2"
             style="fill:none;stroke:#000000;stroke-width:2.82999992;stroke-linecap:butt;stroke-linejoin:round;stroke-miterlimit:10;stroke-dasharray:none;stroke-opacity:1"
             id="path60"
             inkscape:connector-curvature="0" /></g><path
           d="m 340.2,425.1 -25.6,8.5 v -17 z"
           style="fill:#000000;fill-opacity:1;fill-rule:evenodd;stroke:none"
           id="path62"
           inkscape:connector-curvature="0" /><g
           id="g64"><path
             d="m 419.5,294.7 v 29.5"
             style="fill:none;stroke:#000000;stroke-width:2.82999992;stroke-linecap:butt;stroke-linejoin:round;stroke-miterlimit:10;stroke-dasharray:none;stroke-opacity:1"
             id="path66"
             inkscape:connector-curvature="0" /></g><path
           d="M 419.5,348.6 411,323.1 h 17 z"
           style="fill:#000000;fill-opacity:1;fill-rule:evenodd;stroke:none"
           id="path68"
           inkscape:connector-curvature="0" /><g
           id="g70"><path
             d="m 496.1,428 h 91.8"
             style="fill:none;stroke:#000000;stroke-width:2.82999992;stroke-linecap:butt;stroke-linejoin:round;stroke-miterlimit:10;stroke-dasharray:none;stroke-opacity:1"
             id="path72"
             inkscape:connector-curvature="0" /></g><path
           d="m 612.3,428 -25.5,8.5 v -17 z"
           style="fill:#000000;fill-opacity:1;fill-rule:evenodd;stroke:none"
           id="path74"
           inkscape:connector-curvature="0" /><g
           id="g76"><text
             transform="matrix(1,0,0,-1,114.8,464.8)"
             style="font-variant:normal;font-weight:normal;font-size:18px;font-family:'Liberation Sans';-inkscape-font-specification:LiberationSans;writing-mode:lr-tb;fill:#000000;fill-opacity:1;fill-rule:nonzero;stroke:none"
             id="text80"><tspan
               x="0 11.988 21.996 31.896 37.889999 46.889999 56.897999 61.883999 75.959999 85.860001 89.856003 99.755997 108.846 113.832"
               y="0"
               sodipodi:role="line"
               id="tspan78">Source Object </tspan></text>
</g><g
           id="g82"><text
             transform="matrix(1,0,0,-1,114.8,444.6)"
             style="font-variant:normal;font-weight:normal;font-size:18px;font-family:'Liberation Sans';-inkscape-font-specification:LiberationSans;writing-mode:lr-tb;fill:#000000;fill-opacity:1;fill-rule:nonzero;stroke:none"
             id="text86"><tspan
               x="0 11.988 21.996 26.982 31.968 37.962002 49.950001 64.026001 76.014"
               y="0"
               sodipodi:role="line"
               id="tspan84">Set (SOS)</tspan></text>
</g><g
           id="g88"><text
             transform="matrix(1,0,0,-1,350.1,257.8)"
             style="font-variant:normal;font-weight:normal;font-size:18px;font-family:'Liberation Sans';-inkscape-font-specification:LiberationSans;writing-mode:lr-tb;fill:#000000;fill-opacity:1;fill-rule:nonzero;stroke:none"
             id="text92"><tspan
               x="0 4.9860001 14.994 25.002001 34.902 39.888 44.964001 56.952 66.851997 72.846001 82.853996 97.848 107.856 112.842 122.85 128.84399"
               y="0"
               sodipodi:role="line"
               id="tspan90">Input Parameter </tspan></text>
</g><g
           id="g94"><text
             transform="matrix(1,0,0,-1,350.1,237.7)"
             style="font-variant:normal;font-weight:normal;font-size:18px;font-family:'Liberation Sans';-inkscape-font-specification:LiberationSans;writing-mode:lr-tb;fill:#000000;fill-opacity:1;fill-rule:nonzero;stroke:none"
             id="text98"><tspan
               x="0 11.988 21.888 26.964001 31.950001 37.944 43.02 55.007999 66.905998"
               y="0"
               sodipodi:role="line"
               id="tspan96">Set (IPS)</tspan></text>
</g><g
           id="g100"><text
             transform="matrix(1,0,0,-1,375.6,436.4)"
             style="font-variant:normal;font-weight:normal;font-size:18px;font-family:'Liberation Sans';-inkscape-font-specification:LiberationSans;writing-mode:lr-tb;fill:#000000;fill-opacity:1;fill-rule:nonzero;stroke:none"
             id="text104"><tspan
               x="0 11.988 17.982 27.882 36.972 46.872002 55.872002 64.872002"
               y="0"
               sodipodi:role="line"
               id="tspan102">Process </tspan></text>
</g><g
           id="g106"><text
             transform="matrix(1,0,0,-1,375.6,416.3)"
             style="font-variant:normal;font-weight:normal;font-size:18px;font-family:'Liberation Sans';-inkscape-font-specification:LiberationSans;writing-mode:lr-tb;fill:#000000;fill-opacity:1;fill-rule:nonzero;stroke:none"
             id="text110"><tspan
               x="0 13.986 23.993999 27.9 37.908001 46.908001 51.894001 56.970001 62.964001 74.952003 88.938004"
               y="0"
               sodipodi:role="line"
               id="tspan108">Object (PO)</tspan></text>
</g><g
           id="g112"><text
             transform="matrix(1,0,0,-1,636.4,461.9)"
             style="font-variant:normal;font-weight:normal;font-size:18px;font-family:'Liberation Sans';-inkscape-font-specification:LiberationSans;writing-mode:lr-tb;fill:#000000;fill-opacity:1;fill-rule:nonzero;stroke:none"
             id="text116"><tspan
               x="0 9 18.9 24.983999 34.883999 44.891998 49.877998 54.863998 68.940002 78.947998 82.853996 92.862 101.862 106.848"
               y="0"
               sodipodi:role="line"
               id="tspan114">Target Object </tspan></text>
</g><g
           id="g118"><text
             transform="matrix(1,0,0,-1,636.4,441.8)"
             style="font-variant:normal;font-weight:normal;font-size:18px;font-family:'Liberation Sans';-inkscape-font-specification:LiberationSans;writing-mode:lr-tb;fill:#000000;fill-opacity:1;fill-rule:nonzero;stroke:none"
             id="text122"><tspan
               x="0 11.988 21.888 26.964001 31.950001 37.944 48.636002 62.622002 74.610001"
               y="0"
               sodipodi:role="line"
               id="tspan120">Set (TOS)</tspan></text>
</g><g
           id="g124"><path
             d="m 188.5,345.8 v -14.3 l 1.3,-171.1"
             style="fill:none;stroke:#000000;stroke-width:2.82999992;stroke-linecap:butt;stroke-linejoin:round;stroke-miterlimit:10;stroke-dasharray:none;stroke-opacity:1"
             id="path126"
             inkscape:connector-curvature="0" /></g><path
           d="m 189.9,127.5 -8.6,17 8.5,17 8.5,-17 z m 0,2.5 7.2,14.5 -7.3,14.5 -7.2,-14.5 z"
           style="fill:#000000;fill-opacity:1;fill-rule:evenodd;stroke:none"
           id="path128"
           inkscape:connector-curvature="0" /><g
           id="g130"><path
             d="m 419,189.1 11.6,-30.5"
             style="fill:none;stroke:#000000;stroke-width:2.82999992;stroke-linecap:butt;stroke-linejoin:round;stroke-miterlimit:10;stroke-dasharray:none;stroke-opacity:1"
             id="path132"
             inkscape:connector-curvature="0" /></g><path
           d="m 442.2,127.8 -14,12.9 2,18.9 13.9,-12.9 z m -0.9,2.4 1.6,16 -11.8,11 -1.7,-16.1 z"
           style="fill:#000000;fill-opacity:1;fill-rule:evenodd;stroke:none"
           id="path134"
           inkscape:connector-curvature="0" /><g
           id="g136"><path
             d="m 693.1,328.7 v -14.2 l 2.8,-153.1"
             style="fill:none;stroke:#000000;stroke-width:2.82999992;stroke-linecap:butt;stroke-linejoin:round;stroke-miterlimit:10;stroke-dasharray:none;stroke-opacity:1"
             id="path138"
             inkscape:connector-curvature="0" /></g><path
           d="m 696.5,128.5 -8.8,16.9 8.2,17.1 8.8,-16.8 z m 0,2.6 6.9,14.6 -7.5,14.3 -6.9,-14.6 z"
           style="fill:#000000;fill-opacity:1;fill-rule:evenodd;stroke:none"
           id="path140"
           inkscape:connector-curvature="0" /><g
           id="g142"><text
             transform="matrix(1,0,0,-1,409.6,82.1)"
             style="font-variant:normal;font-weight:normal;font-size:18px;font-family:'Liberation Sans';-inkscape-font-specification:LiberationSans;writing-mode:lr-tb;fill:#000000;fill-opacity:1;fill-rule:nonzero;stroke:none"
             id="text146"><tspan
               x="0 13.986 23.993999 27.99 37.889999 46.889999"
               y="0"
               sodipodi:role="line"
               id="tspan144">Object</tspan></text>
</g><g
           id="g148"><path
             d="m 473.2,371.8 h 37.1 L 640.8,157.6"
             style="fill:none;stroke:#000000;stroke-width:2.82999992;stroke-linecap:butt;stroke-linejoin:round;stroke-miterlimit:10;stroke-dasharray:none;stroke-opacity:1"
             id="path150"
             inkscape:connector-curvature="0" /></g><path
           d="m 650.6,127.5 -13.5,13.4 2.7,18.9 13.5,-13.5 z m -0.8,2.4 2.3,16 -11.5,11.5 -2.3,-16.1 z"
           style="fill:#000000;fill-opacity:1;fill-rule:evenodd;stroke:none"
           id="path152"
           inkscape:connector-curvature="0" /><g
           id="g154"><text
             transform="matrix(1,0,0,-1,324.6,535.6)"
             style="font-variant:normal;font-weight:normal;font-size:18px;font-family:'Liberation Sans';-inkscape-font-specification:LiberationSans;writing-mode:lr-tb;fill:#000000;fill-opacity:1;fill-rule:nonzero;stroke:none"
             id="text158"><tspan
               x="0 13.986 23.993999 27.9 37.908001 46.908001 51.894001 56.970001 68.958 74.952003 84.851997 93.851997 103.86 112.86 121.86 126.846 141.84 151.84801 161.856 171.756 175.752 180.73801 186.73199 200.808 212.70599 227.7"
               y="0"
               sodipodi:role="line"
               id="tspan156">Object Process Model (OPM)</tspan></text>
</g></g></g></g></svg>