<?xml version="1.0" encoding="UTF-8" standalone="no"?>
<!-- Created with Inkscape (http://www.inkscape.org/) -->

<svg
   xmlns:dc="http://purl.org/dc/elements/1.1/"
   xmlns:cc="http://creativecommons.org/ns#"
   xmlns:rdf="http://www.w3.org/1999/02/22-rdf-syntax-ns#"
   xmlns:svg="http://www.w3.org/2000/svg"
   xmlns="http://www.w3.org/2000/svg"
   xmlns:sodipodi="http://sodipodi.sourceforge.net/DTD/sodipodi-0.dtd"
   xmlns:inkscape="http://www.inkscape.org/namespaces/inkscape"
   version="1.1"
   id="svg29"
   xml:space="preserve"
   width="1122.4819"
   height="793.66296"
   viewBox="0 0 1122.4819 793.66296"
   sodipodi:docname="opm.svg"
   inkscape:version="0.92.3 (2405546, 2018-03-11)"><metadata
     id="metadata35"><rdf:RDF><cc:Work
         rdf:about=""><dc:format>image/svg+xml</dc:format><dc:type
           rdf:resource="http://purl.org/dc/dcmitype/StillImage" /><dc:title></dc:title></cc:Work></rdf:RDF></metadata><defs
     id="defs33"><clipPath
       clipPathUnits="userSpaceOnUse"
       id="clipPath45"><path
         d="M 0,0 H 841.8 V 595.2 H 0 Z"
         id="path43"
         inkscape:connector-curvature="0"
         style="clip-rule:evenodd" /></clipPath></defs><sodipodi:namedview
     pagecolor="#ffffff"
     bordercolor="#666666"
     borderopacity="1"
     objecttolerance="10"
     gridtolerance="10"
     guidetolerance="10"
     inkscape:pageopacity="0"
     inkscape:pageshadow="2"
     inkscape:window-width="1879"
     inkscape:window-height="1025"
     id="namedview31"
     showgrid="false"
     inkscape:zoom="1.0835834"
     inkscape:cx="561.24097"
     inkscape:cy="618.31882"
     inkscape:window-x="0"
     inkscape:window-y="27"
     inkscape:window-maximized="1"
     inkscape:current-layer="g37" /><g
     id="g37"
     inkscape:groupmode="layer"
     inkscape:label="opm"
     transform="matrix(1.3333333,0,0,-1.3333333,0,793.66299)"><g
       id="g39"><g
         id="g41"
         clip-path="url(#clipPath45)"><path
           d="M 0,595.2 H 841.9 V 0 H 0 Z"
           style="fill:#ffffff;fill-opacity:1;fill-rule:evenodd;stroke:none"
           id="path47"
           inkscape:connector-curvature="0" /><g
           id="g49"><path
             d="m 442.2,39.9 h -343 v 87.9 h 686 V 39.9 Z"
             style="fill:none;stroke:#000000;stroke-width:0.75;stroke-linecap:butt;stroke-linejoin:round;stroke-miterlimit:10;stroke-dasharray:none;stroke-opacity:1"
             id="path51"
             inkscape:connector-curvature="0" /></g><g
           id="g53"><path
             d="M 188.5,345.8 H 96.4 V 518.7 H 280.6 V 345.8 Z"
             style="fill:none;stroke:#000000;stroke-width:0.75;stroke-linecap:butt;stroke-linejoin:round;stroke-miterlimit:10;stroke-dasharray:none;stroke-opacity:1"
             id="path55"
             inkscape:connector-curvature="0" /></g><g
           id="g57"><path
             d="m 418.1,507.3 c 44.2,0 78,-34.4 78,-79.3 0,-45 -33.8,-79.4 -78,-79.4 -44.2,0 -77.9,34.4 -77.9,79.4 0,44.9 33.7,79.3 77.9,79.3 z"
             style="fill:none;stroke:#000000;stroke-width:0.75;stroke-linecap:butt;stroke-linejoin:round;stroke-miterlimit:10;stroke-dasharray:none;stroke-opacity:1"
             id="path59"
             inkscape:connector-curvature="0" /></g><g
           id="g61"><path
             d="M 340.2,507.3 Z"
             style="fill:none;stroke:#000000;stroke-width:0.75;stroke-linecap:butt;stroke-linejoin:round;stroke-miterlimit:10;stroke-dasharray:none;stroke-opacity:1"
             id="path63"
             inkscape:connector-curvature="0" /></g><g
           id="g65"><path
             d="M 496.1,348.6 Z"
             style="fill:none;stroke:#000000;stroke-width:0.75;stroke-linecap:butt;stroke-linejoin:round;stroke-miterlimit:10;stroke-dasharray:none;stroke-opacity:1"
             id="path67"
             inkscape:connector-curvature="0" /></g><g
           id="g69"><path
             d="M 693.1,328.7 H 612.3 V 510.2 H 773.9 V 328.7 Z"
             style="fill:none;stroke:#000000;stroke-width:0.75;stroke-linecap:butt;stroke-linejoin:round;stroke-miterlimit:10;stroke-dasharray:none;stroke-opacity:1"
             id="path71"
             inkscape:connector-curvature="0" /></g><g
           id="g73"><path
             d="M 419,189.1 H 325.5 V 294 H 512.6 V 189.1 Z"
             style="fill:none;stroke:#000000;stroke-width:0.75;stroke-linecap:butt;stroke-linejoin:round;stroke-miterlimit:10;stroke-dasharray:none;stroke-opacity:1"
             id="path75"
             inkscape:connector-curvature="0" /></g><path
           d="M 280.6,425.1 H 328"
           style="fill:none;stroke:#000000;stroke-width:0.1;stroke-linecap:butt;stroke-linejoin:miter;stroke-miterlimit:10;stroke-dasharray:none;stroke-opacity:1"
           id="path77"
           inkscape:connector-curvature="0" /><path
           d="m 340.2,425.1 -12.8,4.3 v -8.5 z"
           style="fill:#000000;fill-opacity:1;fill-rule:evenodd;stroke:none"
           id="path79"
           inkscape:connector-curvature="0" /><path
           d="m 419.5,294.7 v 41.7"
           style="fill:none;stroke:#000000;stroke-width:0.1;stroke-linecap:butt;stroke-linejoin:miter;stroke-miterlimit:10;stroke-dasharray:none;stroke-opacity:1"
           id="path81"
           inkscape:connector-curvature="0" /><path
           d="m 419.5,348.6 -4.2,-12.8 h 8.5 z"
           style="fill:#000000;fill-opacity:1;fill-rule:evenodd;stroke:none"
           id="path83"
           inkscape:connector-curvature="0" /><path
           d="m 496.1,428 h 104"
           style="fill:none;stroke:#000000;stroke-width:0.1;stroke-linecap:butt;stroke-linejoin:miter;stroke-miterlimit:10;stroke-dasharray:none;stroke-opacity:1"
           id="path85"
           inkscape:connector-curvature="0" /><path
           d="m 612.3,428 -12.8,4.2 v -8.5 z"
           style="fill:#000000;fill-opacity:1;fill-rule:evenodd;stroke:none"
           id="path87"
           inkscape:connector-curvature="0" /><g
           id="g89"><text
             transform="matrix(1,0,0,-1,114.8,464.8)"
             style="font-variant:normal;font-weight:normal;font-size:18px;font-family:'Liberation Sans';-inkscape-font-specification:LiberationSans;writing-mode:lr-tb;fill:#000000;fill-opacity:1;fill-rule:nonzero;stroke:none"
             id="text93"><tspan
               x="0 11.988 21.996 31.896 37.889999 46.889999 56.897999 61.883999 75.959999 85.860001 89.856003 99.755997 108.846 113.832"
               y="0"
               sodipodi:role="line"
               id="tspan91">Source Object </tspan></text>
</g><g
           id="g95"><text
             transform="matrix(1,0,0,-1,114.8,444.6)"
             style="font-variant:normal;font-weight:normal;font-size:18px;font-family:'Liberation Sans';-inkscape-font-specification:LiberationSans;writing-mode:lr-tb;fill:#000000;fill-opacity:1;fill-rule:nonzero;stroke:none"
             id="text99"><tspan
               x="0 11.988 21.996 26.982 31.968 37.962002 49.950001 64.026001 76.014"
               y="0"
               sodipodi:role="line"
               id="tspan97">Set (SOS)</tspan></text>
</g><g
           id="g101"><text
             transform="matrix(1,0,0,-1,350.1,257.8)"
             style="font-variant:normal;font-weight:normal;font-size:18px;font-family:'Liberation Sans';-inkscape-font-specification:LiberationSans;writing-mode:lr-tb;fill:#000000;fill-opacity:1;fill-rule:nonzero;stroke:none"
             id="text105"><tspan
               x="0 4.9860001 14.994 25.002001 34.902 39.888 44.964001 56.952 66.851997 72.846001 82.853996 97.848 107.856 112.842 122.85 128.84399"
               y="0"
               sodipodi:role="line"
               id="tspan103">Input Parameter </tspan></text>
</g><g
           id="g107"><text
             transform="matrix(1,0,0,-1,350.1,237.7)"
             style="font-variant:normal;font-weight:normal;font-size:18px;font-family:'Liberation Sans';-inkscape-font-specification:LiberationSans;writing-mode:lr-tb;fill:#000000;fill-opacity:1;fill-rule:nonzero;stroke:none"
             id="text111"><tspan
               x="0 11.988 21.888 26.964001 31.950001 37.944 43.02 55.007999 66.905998"
               y="0"
               sodipodi:role="line"
               id="tspan109">Set (IPS)</tspan></text>
</g><g
           id="g113"><text
             transform="matrix(1,0,0,-1,375.6,436.4)"
             style="font-variant:normal;font-weight:normal;font-size:18px;font-family:'Liberation Sans';-inkscape-font-specification:LiberationSans;writing-mode:lr-tb;fill:#000000;fill-opacity:1;fill-rule:nonzero;stroke:none"
             id="text117"><tspan
               x="0 11.988 17.982 27.882 36.972 46.872002 55.872002"
               y="0"
               sodipodi:role="line"
               id="tspan115">Process</tspan></text>
</g><g
           id="g119"><text
             transform="matrix(1,0,0,-1,636.4,461.9)"
             style="font-variant:normal;font-weight:normal;font-size:18px;font-family:'Liberation Sans';-inkscape-font-specification:LiberationSans;writing-mode:lr-tb;fill:#000000;fill-opacity:1;fill-rule:nonzero;stroke:none"
             id="text123"><tspan
               x="0 9 18.9 24.983999 34.883999 44.891998 49.877998 54.863998 68.940002 78.947998 82.853996 92.862 101.862 106.848"
               y="0"
               sodipodi:role="line"
               id="tspan121">Target Object </tspan></text>
</g><g
           id="g125"><text
             transform="matrix(1,0,0,-1,636.4,441.8)"
             style="font-variant:normal;font-weight:normal;font-size:18px;font-family:'Liberation Sans';-inkscape-font-specification:LiberationSans;writing-mode:lr-tb;fill:#000000;fill-opacity:1;fill-rule:nonzero;stroke:none"
             id="text129"><tspan
               x="0 11.988 21.888 26.964001 31.950001 37.944 48.636002 62.622002 74.610001"
               y="0"
               sodipodi:role="line"
               id="tspan127">Set (TOS)</tspan></text>
</g><path
           d="m 188.5,345.8 v -14.3 l 1.4,-187.6"
           style="fill:none;stroke:#000000;stroke-width:0.1;stroke-linecap:butt;stroke-linejoin:miter;stroke-miterlimit:10;stroke-dasharray:none;stroke-opacity:1"
           id="path131"
           inkscape:connector-curvature="0" /><path
           d="m 189.9,127.5 -4.2,8.5 4.2,8.5 4.3,-8.5 z m 0,1.3 3.6,7.2 -3.6,7.2 -3.6,-7.2 z"
           style="fill:#000000;fill-opacity:1;fill-rule:evenodd;stroke:none"
           id="path133"
           inkscape:connector-curvature="0" /><path
           d="m 419,189.1 17.4,-45.9"
           style="fill:none;stroke:#000000;stroke-width:0.1;stroke-linecap:butt;stroke-linejoin:miter;stroke-miterlimit:10;stroke-dasharray:none;stroke-opacity:1"
           id="path135"
           inkscape:connector-curvature="0" /><path
           d="m 442.2,127.8 -7,6.5 1,9.4 7,-6.4 z m -0.4,1.2 0.8,8 -6,5.5 -0.8,-8 z"
           style="fill:#000000;fill-opacity:1;fill-rule:evenodd;stroke:none"
           id="path137"
           inkscape:connector-curvature="0" /><path
           d="M 693.1,328.7 V 314.5 L 696.2,145"
           style="fill:none;stroke:#000000;stroke-width:0.1;stroke-linecap:butt;stroke-linejoin:miter;stroke-miterlimit:10;stroke-dasharray:none;stroke-opacity:1"
           id="path139"
           inkscape:connector-curvature="0" /><path
           d="m 696.5,128.5 -4.4,8.5 4.1,8.5 4.4,-8.4 z m 0,1.3 3.5,7.3 -3.8,7.2 -3.4,-7.3 z"
           style="fill:#000000;fill-opacity:1;fill-rule:evenodd;stroke:none"
           id="path141"
           inkscape:connector-curvature="0" /><g
           id="g143"><text
             transform="matrix(1,0,0,-1,409.6,82.1)"
             style="font-variant:normal;font-weight:normal;font-size:18px;font-family:'Liberation Sans';-inkscape-font-specification:LiberationSans;writing-mode:lr-tb;fill:#000000;fill-opacity:1;fill-rule:nonzero;stroke:none"
             id="text147"><tspan
               x="0 13.986 23.993999 27.99 37.889999 46.889999"
               y="0"
               sodipodi:role="line"
               id="tspan145">Object</tspan></text>
</g><path
           d="m 473.2,371.8 h 37.1 L 649.4,143.6"
           style="fill:none;stroke:#000000;stroke-width:0.1;stroke-linecap:butt;stroke-linejoin:miter;stroke-miterlimit:10;stroke-dasharray:none;stroke-opacity:1"
           id="path149"
           inkscape:connector-curvature="0" /><path
           d="m 650.6,127.5 -5,8.1 3.4,8.8 5,-8.1 z m -0.2,1.3 3,7.5 -4.2,6.9 -3,-7.6 z"
           style="fill:#000000;fill-opacity:1;fill-rule:evenodd;stroke:none"
           id="path151"
           inkscape:connector-curvature="0" /><g
           id="g153"><text
             transform="matrix(1,0,0,-1,324.6,535.6)"
             style="font-variant:normal;font-weight:normal;font-size:18px;font-family:'Liberation Sans';-inkscape-font-specification:LiberationSans;writing-mode:lr-tb;fill:#000000;fill-opacity:1;fill-rule:nonzero;stroke:none"
             id="text157"><tspan
               x="0 13.986 23.993999 27.9 37.908001 46.908001 51.894001 56.970001 68.958 74.952003 84.851997 93.851997 103.86 112.86 121.86 126.846 141.84 151.84801 161.856 171.756 175.752 180.73801 186.73199 200.808 212.70599 227.7"
               y="0"
               sodipodi:role="line"
               id="tspan155">Object Process Model (OPM)</tspan></text>
</g></g></g></g></svg>